{"title":"The Trip To Spain 2017 LIMITED 1080p BluRay 6CH (5.1) AAC x264 -","magnet":"magnet:?xt=urn:btih:abd0b215cff88f2cc21ac2b944d0b923971c481f&dn=The+Trip+To+Spain+2017+LIMITED+1080p+BluRay+6CH+%285.1%29+AAC+x264+-&tr=udp%3A%2F%2Ftracker.leechers-paradise.org%3A6969&tr=udp%3A%2F%2Fzer0day.ch%3A1337&tr=udp%3A%2F%2Fopen.demonii.com%3A1337&tr=udp%3A%2F%2Ftracker.coppersurfer.tk%3A6969&tr=udp%3A%2F%2Fexodus.desync.com%3A6969","uploader":"samcode4u","categoryP":"video","categoryS":"hd___movies","size":"1718019062","seeders":"0","leechers":"19","description":"The Trip To Spain 2017 LIMITED 1080p BluRay 6CH (5.1) AAC x264 - EiE\r\n\r\n <a href=\"\nhttps://www.imdb.com/title/tt6193424/\" rel=\"nofollow\" target=\"_NEW\">\nhttps://www.imdb.com/title/tt6193424/</a>\r\n\r\n\r\nScreenshots:\r\n\r\n <a href=\"\nhttps://lensdump.com/i/ptDA3\" rel=\"nofollow\" target=\"_NEW\">\nhttps://lensdump.com/i/ptDA3</a>\r\n <a href=\"\nhttps://lensdump.com/i/ptNV0\" rel=\"nofollow\" target=\"_NEW\">\nhttps://lensdump.com/i/ptNV0</a>\r\n <a href=\"\nhttps://lensdump.com/i/ptPnD\" rel=\"nofollow\" target=\"_NEW\">\nhttps://lensdump.com/i/ptPnD</a>\r\n <a href=\"\nhttps://lensdump.com/i/ptf5q\" rel=\"nofollow\" target=\"_NEW\">\nhttps://lensdump.com/i/ptf5q</a>\r\n\r\n\r\n\r\n\r\nVideo\r\nID                                       : 1\r\nFormat                                   : AVC\r\nFormat/Info                              : Advanced Video Codec\r\nFormat settings, CABAC                   : Yes\r\nFormat settings, ReFrames                : 4 frames\r\nCodec ID                                 : avc1\r\nCodec ID/Info                            : Advanced Video Coding\r\nDuration                                 : 1h 47mn\r\nBit rate                                 : 1 870 Kbps\r\nMaximum bit rate                         : 9 833 Kbps\r\nWidth                                    : 1 912 pixels\r\nHeight                                   : 1 032 pixels\r\nDisplay aspect ratio                     : 1.85:1\r\nFrame rate mode                          : Constant\r\nFrame rate                               : 23.976 fps\r\nColor space                              : YUV\r\nChroma subsampling                       : 4:2:0\r\nBit depth                                : 8 bits\r\nScan type                                : Progressive\r\nBits/(Pixel*Frame)                       : 0.040\r\nStream size                              : 1.41 GiB (88%)\r\n\r\nAudio\r\nID                                       : 2\r\nFormat                                   : AAC\r\nFormat/Info                              : Advanced Audio Codec\r\nFormat profile                           : LC\r\nCodec ID                                 : 40\r\nDuration                                 : 1h 47mn\r\nBit rate mode                            : Variable\r\nBit rate                                 : 249 Kbps\r\nMaximum bit rate                         : 327 Kbps\r\nChannel(s)                               : 6 channels\r\nChannel positions                        : Front: L C R, Side: L R, LFE\r\nSampling rate                            : 48.0 KHz\r\nCompression mode                         : Lossy\r\nStream size                              : 192 MiB (12%)\r\nLanguage                                 : English","last_updated":"2017-12-21T12:02:20.638Z","parsed":{"xt":"urn:btih:abd0b215cff88f2cc21ac2b944d0b923971c481f","dn":"The Trip To Spain 2017 LIMITED 1080p BluRay 6CH (5.1) AAC x264 -","tr":["udp://exodus.desync.com:6969","udp://open.demonii.com:1337","udp://tracker.coppersurfer.tk:6969","udp://tracker.leechers-paradise.org:6969","udp://zer0day.ch:1337"],"infoHash":"abd0b215cff88f2cc21ac2b944d0b923971c481f","infoHashBuffer":{"type":"Buffer","data":[171,208,178,21,207,248,143,44,194,26,194,185,68,208,185,35,151,28,72,31]},"name":"The Trip To Spain 2017 LIMITED 1080p BluRay 6CH (5.1) AAC x264 -","announce":["udp://exodus.desync.com:6969","udp://open.demonii.com:1337","udp://tracker.coppersurfer.tk:6969","udp://tracker.leechers-paradise.org:6969","udp://zer0day.ch:1337"],"urlList":[]}}